<?xml version="1.0" encoding="UTF-8" standalone="no"?>
<!-- Created with Inkscape (http://www.inkscape.org/) -->

<svg
   xmlns:dc="http://purl.org/dc/elements/1.1/"
   xmlns:cc="http://creativecommons.org/ns#"
   xmlns:rdf="http://www.w3.org/1999/02/22-rdf-syntax-ns#"
   xmlns:svg="http://www.w3.org/2000/svg"
   xmlns="http://www.w3.org/2000/svg"
   xmlns:sodipodi="http://sodipodi.sourceforge.net/DTD/sodipodi-0.dtd"
   xmlns:inkscape="http://www.inkscape.org/namespaces/inkscape"
   width="210mm"
   height="297mm"
   viewBox="0 0 210 297"
   version="1.1"
   id="svg28"
   inkscape:version="0.92.4 (5da689c313, 2019-01-14)"
   sodipodi:docname="ace-1.svg"
   inkscape:export-filename="C:\Users\stwood\Documents\Mapping-Webapp\mapping\www\ace-1.png"
   inkscape:export-xdpi="96"
   inkscape:export-ydpi="96">
  <defs
     id="defs22">
    <inkscape:path-effect
       effect="spiro"
       id="path-effect869"
       is_visible="true" />
    <inkscape:path-effect
       effect="spiro"
       id="path-effect865"
       is_visible="true" />
    <inkscape:path-effect
       effect="bspline"
       id="path-effect861"
       is_visible="true"
       weight="33.333333"
       steps="2"
       helper_size="0"
       apply_no_weight="true"
       apply_with_weight="true"
       only_selected="false" />
    <inkscape:path-effect
       effect="bspline"
       id="path-effect857"
       is_visible="true"
       weight="33.333333"
       steps="2"
       helper_size="0"
       apply_no_weight="true"
       apply_with_weight="true"
       only_selected="false" />
    <inkscape:path-effect
       effect="bspline"
       id="path-effect853"
       is_visible="true"
       weight="33.333333"
       steps="2"
       helper_size="0"
       apply_no_weight="true"
       apply_with_weight="true"
       only_selected="false" />
    <inkscape:path-effect
       effect="bspline"
       id="path-effect849"
       is_visible="true"
       weight="33.333333"
       steps="2"
       helper_size="0"
       apply_no_weight="true"
       apply_with_weight="true"
       only_selected="false" />
  </defs>
  <sodipodi:namedview
     id="base"
     pagecolor="#ffffff"
     bordercolor="#666666"
     borderopacity="1.0"
     inkscape:pageopacity="0.0"
     inkscape:pageshadow="2"
     inkscape:zoom="1.4"
     inkscape:cx="349.9146"
     inkscape:cy="789.46227"
     inkscape:document-units="mm"
     inkscape:current-layer="svg28"
     showgrid="false"
     inkscape:window-width="2560"
     inkscape:window-height="1377"
     inkscape:window-x="-8"
     inkscape:window-y="-8"
     inkscape:window-maximized="1"
     showguides="false" />
  <metadata
     id="metadata25">
    <rdf:RDF>
      <cc:Work
         rdf:about="">
        <dc:format>image/svg+xml</dc:format>
        <dc:type
           rdf:resource="http://purl.org/dc/dcmitype/StillImage" />
        <dc:title />
      </cc:Work>
    </rdf:RDF>
  </metadata>
  <g
     inkscape:groupmode="layer"
     id="layer2"
     inkscape:label="Layer 2"
     style="display:inline" />
  <path
     style="fill:none;stroke:#000000;stroke-width:1.5;stroke-linecap:butt;stroke-linejoin:miter;stroke-opacity:1;stroke-miterlimit:4;stroke-dasharray:1.5,1.5;stroke-dashoffset:0"
     d="m 21.922619,140.51785 c 5.102787,2.5199 10.205463,5.03974 16.820066,5.10269 6.614602,0.063 14.74126,-2.33095 19.717728,-0.81918 4.976468,1.51177 6.803423,6.92964 8.460994,9.97959 1.65757,3.04995 3.193294,3.75383 5.826546,1.78487 2.633251,-1.96896 6.438293,-6.66184 8.139075,-13.87457 1.700782,-7.21273 1.322782,-16.97772 0.314847,-23.2457 -1.007934,-6.26798 -2.645871,-9.03988 -6.614356,-9.89032 -3.968484,-0.85045 -10.268269,0.22052 -14.552093,0.59852 -4.283823,0.37801 -6.551571,0.063 -7.244525,-1.07116 -0.692953,-1.13419 0.188907,-3.08688 -0.08009,-4.52614 -0.268994,-1.43925 -1.746958,-2.40314 -3.006796,-2.40326 -1.259839,-1.2e-4 -2.330725,0.94478 -3.275938,0.59815 -0.945213,-0.34662 -1.763944,-1.98408 -0.377962,-3.558952 1.385982,-1.574868 4.976985,-3.08687 5.858839,-4.976598 0.881854,-1.889728 -0.945192,-4.157786 -2.55148,-5.480661 -1.606288,-1.322874 -2.992217,-1.700855 -3.496214,-2.677576 -0.503998,-0.97672 -0.126071,-2.551416 -0.439142,-3.781673 -0.313072,-1.230256 -1.450874,-2.234199 -3.057166,-2.706676 -1.606293,-0.472478 -3.748124,-0.472478 -5.323223,-1.008014 -1.575099,-0.535537 -2.58291,-1.606337 -3.244385,-2.929346 -0.661474,-1.32301 -0.976456,-2.897921 -1.952608,-3.338904 -0.976152,-0.440984 -2.614261,0.252062 -4.363448,-0.08345 -1.749186,-0.335511 -3.668745,-1.743189 -4.64523,-2.56225 -0.976486,-0.819061 -1.039481,-1.07104 -1.10243,-1.322837"
     id="path847"
     inkscape:connector-curvature="0"
     inkscape:path-effect="#path-effect849"
     inkscape:original-d="m 21.922619,140.51785 c 5.102944,2.51958 10.205621,5.03942 15.308036,7.55953 8.12658,-2.39407 16.253241,-4.78796 24.379463,-7.18155 1.82708,5.41719 3.654036,10.83506 5.480655,16.25298 1.512213,0.62971 3.024074,1.38565 4.535715,2.07887 3.716737,-4.66161 7.559786,-9.32368 11.339285,-13.98512 -0.377687,-9.76405 -0.755687,-19.52904 -1.13393,-29.29316 -1.637588,-2.77202 -3.275528,-5.54391 -4.913688,-8.31547 -6.299158,1.07063 -12.598942,2.1416 -18.898812,3.2128 -2.267698,-0.31527 -4.535447,-0.63023 -6.803569,-0.94495 0.882295,-1.95333 1.764154,-3.90602 2.645833,-5.85863 -1.448409,-0.88206 -2.897553,-1.89014 -4.346726,-2.83482 -1.070716,0.94472 -2.141601,1.88962 -3.212798,2.83482 -0.818899,-1.63859 -1.637633,-3.27605 -2.456844,-4.913688 3.590806,-1.512072 7.18181,-3.024073 10.772319,-4.535715 -1.826458,-2.267918 -3.653504,-4.535976 -5.480653,-6.803569 -1.385631,-0.378235 -2.77156,-0.756217 -4.157739,-1.13393 0.378291,-1.575369 0.756216,-3.150066 1.133928,-4.724702 -1.007473,-0.882036 -2.141599,-1.890146 -3.212796,-2.83482 -2.141636,-2.64e-4 -4.283467,-2.64e-4 -6.425597,0 -1.007795,-1.07133 -2.015606,-2.14213 -3.023809,-3.212798 -0.314714,-1.575155 -0.629695,-3.150066 -0.944941,-4.724702 -1.637419,0.6926 -3.275528,1.385647 -4.913691,2.078868 -1.889983,-1.32344 -3.779496,-2.772089 -5.669641,-4.157739 -0.06273,-0.252253 -0.125728,-0.504232 -0.188988,-0.755951"
     transform="matrix(1,0,0,-1,0.1511906,188.70574)"
     inkscape:export-xdpi="96"
     inkscape:export-ydpi="96" />
  <path
     style="fill:none;stroke:#000000;stroke-width:1.5;stroke-linecap:butt;stroke-linejoin:miter;stroke-opacity:1;stroke-miterlimit:4;stroke-dasharray:1.5,1.5;stroke-dashoffset:0"
     d="m 61.610118,12.005952 c 2.078815,4.787573 4.157683,9.575271 6.898204,12.095187 2.740521,2.519916 6.142219,2.771893 9.480924,1.889917 3.338706,-0.881977 6.614735,-2.897994 8.34697,-5.417737 1.732235,-2.519743 1.92124,-5.543837 2.11021,-8.567367"
     id="path851"
     inkscape:connector-curvature="0"
     inkscape:path-effect="#path-effect853"
     inkscape:original-d="m 61.610118,12.005952 c 2.079135,4.787434 4.158003,9.575132 6.236607,14.363095 3.402139,0.251727 6.803837,0.503703 10.205357,0.755951 3.275825,-2.015992 6.551854,-4.032009 9.827382,-6.047618 0.189235,-3.023788 0.37824,-6.047883 0.566962,-9.071428"
     transform="matrix(1,0,0,-1,0.15119048,188.70574)"
     inkscape:export-xdpi="96"
     inkscape:export-ydpi="96" />
  <path
     style="fill:none;stroke:#000000;stroke-width:1.5;stroke-linecap:butt;stroke-linejoin:miter;stroke-opacity:1;stroke-miterlimit:4;stroke-dasharray:1.5,1.5;stroke-dashoffset:0"
     d="m 94.116071,11.627976 c 0.125989,12.535948 0.251981,25.072158 2.015944,32.379873 1.763963,7.307716 5.165675,9.386541 10.797915,8.241852 5.63223,-1.144689 13.64479,-5.596109 19.47175,-12.809028 5.82696,-7.212918 9.54387,-17.229684 13.26052,-27.245733"
     id="path855"
     inkscape:connector-curvature="0"
     inkscape:path-effect="#path-effect857"
     inkscape:original-d="m 94.116071,11.627976 c 0.126257,12.535945 0.252249,25.072155 0.377976,37.60863 3.402121,2.078648 6.803833,4.157474 10.205353,6.236607 7.8746,-4.346895 15.87527,-8.819708 23.8125,-13.229166 3.71689,-10.016236 7.4338,-20.033003 11.1503,-30.049107"
     transform="matrix(1,0,0,-1,0.15120243,188.70573)"
     inkscape:export-xdpi="96"
     inkscape:export-ydpi="96" />
  <path
     style="fill:none;stroke:#000000;stroke-width:1.5;stroke-linecap:butt;stroke-linejoin:miter;stroke-opacity:1;stroke-miterlimit:4;stroke-dasharray:1.5,1.5;stroke-dashoffset:0"
     d="m 179.16071,142.40774 c -2.14154,0.81882 -4.28341,1.63777 -7.4337,-2.0481 -3.1503,-3.68587 -7.30742,-11.87413 -9.63821,-16.12628 -2.33078,-4.25216 -2.83477,-4.56715 -2.36225,-0.75545 0.47252,3.8117 1.92122,11.74807 1.35438,16.91375 -0.56684,5.16569 -3.14961,7.55947 -6.29976,6.07888 -3.15016,-1.48059 -6.86653,-6.83468 -10.4886,-8.72461 -3.62208,-1.88994 -7.1499,-0.31502 -10.99301,-2.01608 -3.84311,-1.70106 -8.00048,-6.6773 -13.1976,-11.65395 -5.19713,-4.97664 -11.43377,-9.95336 -14.2686,-15.93815 -2.83482,-5.9848 -2.26786,-12.977321 -1.1179,-17.216162 1.14995,-4.23884 2.94504,-5.777485 2.09481,-7.131658 -0.85024,-1.354173 -4.31557,-2.551287 -7.072069,-3.987618 -2.756498,-1.436331 -4.866149,-3.162409 -5.023575,-6.154921 -0.157426,-2.992513 1.606437,-7.276183 4.220674,-9.008422 2.61424,-1.73224 6.07928,-0.91323 10.01646,-2.236188 3.93718,-1.322958 8.34714,-4.78793 12.34797,-6.2415 4.00084,-1.453569 7.71636,-0.877022 11.50466,0.62072 3.7883,1.497742 7.80283,3.982927 9.22026,7.132511 1.41743,3.149585 0.28348,6.992413 0.15745,10.67789 -0.12602,3.685477 0.75585,7.212965 0.66144,9.953279 -0.0944,2.740315 -1.16529,4.69309 -1.22833,6.583226 -0.063,1.890137 0.88176,3.716728 2.70881,5.197243 1.82706,1.480515 4.53574,2.61438 6.53662,2.503988 2.00089,-0.110392 3.3539,-1.527833 5.5899,-1.622281 2.23599,-0.09445 5.38641,1.10271 8.25266,2.236615 2.86626,1.133908 5.44921,2.204888 6.77206,4.157538 1.32285,1.95265 1.38585,4.78761 1.82688,6.52017 0.44102,1.73256 1.25991,2.36247 2.33092,2.01588 1.07101,-0.3466 2.39399,-1.66958 3.71664,-2.99223"
     id="path859"
     inkscape:connector-curvature="0"
     inkscape:path-effect="#path-effect861"
     inkscape:original-d="m 179.16071,142.40774 c -2.1416,0.81868 -4.28346,1.63763 -6.42559,2.45684 -4.15809,-8.19097 -8.31522,-16.37923 -12.47322,-24.56845 -0.50369,-0.31524 -1.00767,-0.63023 -1.5119,-0.94494 1.44938,7.93836 2.89808,15.87473 4.34672,23.8125 -2.58264,2.39365 -5.16541,4.78743 -7.74851,7.18155 -3.71689,-5.3555 -7.43326,-10.70959 -11.1503,-16.06399 -3.52747,1.57462 -7.05529,3.14954 -10.58333,4.7247 -4.15785,-4.9774 -8.31521,-9.95364 -12.47321,-14.93006 -6.23631,-4.97692 -12.47295,-9.95364 -18.70982,-14.93006 0.56723,-6.99286 1.13419,-13.985382 1.70089,-20.977677 1.76408,-1.449115 3.52804,-3.024073 5.29167,-4.535715 -3.46397,-1.196996 -6.9293,-2.394114 -10.39435,-3.590774 -2.078697,-1.638234 -4.157472,-3.402049 -6.236605,-5.102677 1.764178,-4.284054 3.528041,-8.567724 5.291666,-12.851191 3.464789,0.818624 6.929829,1.637633 10.394349,2.456847 4.40974,-3.464856 8.8197,-6.929829 13.22916,-10.394347 3.5908,0.566664 7.30781,1.133666 10.96131,1.700893 3.90579,2.456434 7.93777,4.913426 11.90625,7.370537 -1.13364,3.842422 -2.26759,7.685249 -3.40178,11.528272 0.88228,3.527803 1.76415,7.055291 2.64583,10.583333 -1.07072,1.952718 -2.1416,3.905491 -3.2128,5.858632 0.94536,1.826916 1.89015,3.653506 2.83482,5.480655 2.70925,1.133727 5.41793,2.267593 8.12649,3.401782 1.26013,-1.386106 2.6461,-2.772087 3.96875,-4.157736 3.14945,1.196427 6.29987,2.393585 9.44941,3.590774 2.58298,1.070622 5.16593,2.141602 7.74851,3.212802 0.0633,2.83441 0.12625,5.66937 0.18899,8.50446 0.81928,0.62975 1.63816,1.25966 2.45684,1.88988 1.32312,-1.32312 2.6461,-2.6461 3.96875,-3.96875"
     transform="matrix(1,0,0,-1,0.15119101,188.70574)"
     inkscape:export-xdpi="96"
     inkscape:export-ydpi="96" />
  <path
     style="fill:none;stroke:#000000;stroke-width:1.5;stroke-linecap:butt;stroke-linejoin:miter;stroke-opacity:1;stroke-miterlimit:4;stroke-dasharray:1.5,1.5;stroke-dashoffset:0"
     d="m 59.531249,42.622022 c -3.298385,1.85229 -6.114663,4.542457 -8.160385,7.724491 -2.045722,3.182034 -3.321638,6.84832 -3.745865,10.607356 -0.433646,3.842503 0.02582,7.800553 1.467344,11.388713 1.441522,3.58816 3.87781,6.792283 7.037121,9.021999 3.64746,2.574232 8.192568,3.791029 12.652317,3.587867 4.45975,-0.203162 8.818349,-1.794263 12.4831,-4.343819 4.629995,-3.221074 8.183395,-8.02111 9.702265,-13.45298 1.51887,-5.43187 0.944184,-11.460041 -1.764765,-16.407138 -2.73931,-5.002542 -7.611734,-8.771074 -13.120227,-10.249498 -5.508494,-1.478425 -11.57796,-0.669671 -16.550905,2.123009 z"
     id="path863"
     inkscape:connector-curvature="0"
     inkscape:path-effect="#path-effect865"
     inkscape:original-d="m 59.531249,42.622022 c -9.890641,-2.708563 -7.937235,12.220967 -11.90625,18.331847 -3.969014,6.11088 5.669907,13.606878 8.504465,20.410712 2.834556,6.803837 16.757208,-0.504232 25.135417,-0.755952 8.378205,-0.251719 5.291931,-19.907009 7.9375,-29.860118 2.645568,-9.953108 -19.780491,-5.417923 -29.671132,-8.126489 z"
     transform="matrix(1,0,0,-1,0.15119048,188.70574)"
     inkscape:export-xdpi="96"
     inkscape:export-ydpi="96" />
  <path
     style="fill:none;stroke:#000000;stroke-width:1.5;stroke-linecap:butt;stroke-linejoin:miter;stroke-opacity:1;stroke-miterlimit:4;stroke-dasharray:1.5,1.5;stroke-dashoffset:0"
     d="m 146.84375,40.543154 c -1.27223,-0.389203 -2.65357,-0.448014 -3.9378,-0.100495 -1.28424,0.347519 -2.46368,1.110312 -3.25331,2.181073 -0.78962,1.07076 -1.17124,2.449253 -0.97816,3.765595 0.19308,1.316342 0.97655,2.547919 2.12165,3.225254 0.6541,0.386906 1.39912,0.589763 2.14075,0.755692 0.74162,0.165928 1.49439,0.300427 2.20598,0.567225 1.53278,0.574689 2.77113,1.719523 3.9675,2.836841 1.19636,1.117319 2.4361,2.2611 3.97,2.832804 1.22689,0.457278 2.58757,0.515922 3.86788,0.241771 1.28031,-0.274151 2.48087,-0.87288 3.52043,-1.668926 2.0791,-1.592093 3.47996,-3.917186 4.51794,-6.321358 0.47101,-1.090952 0.88367,-2.242923 0.85819,-3.430937 -0.0127,-0.594007 -0.13835,-1.190134 -0.40711,-1.720012 -0.26877,-0.529879 -0.685,-0.990955 -1.20704,-1.274645 -0.59088,-0.321101 -1.29166,-0.402974 -1.95908,-0.320569 -0.66743,0.08241 -1.30666,0.320555 -1.91449,0.608303 -1.21565,0.575494 -2.36192,1.36563 -3.68595,1.602145 -0.88004,0.157204 -1.79303,0.05646 -2.6508,-0.195355 -0.85777,-0.251816 -1.66547,-0.650875 -2.44189,-1.093979 -1.55286,-0.886209 -3.02497,-1.967383 -4.73469,-2.490427 z"
     id="path867"
     inkscape:connector-curvature="0"
     inkscape:path-effect="#path-effect869"
     inkscape:original-d="m 146.84375,40.543154 c -3.27606,-1.259657 -4.03148,6.047354 -6.04762,9.071427 -2.01614,3.024077 2.89808,0.881682 4.34673,1.322917 1.44864,0.441238 5.29193,3.779499 7.9375,5.669645 2.64556,1.890144 7.93776,-5.165939 11.90625,-7.748513 3.96848,-2.582572 -0.50371,-4.283996 -0.75596,-6.425594 -0.25224,-2.141601 -5.03941,1.259655 -7.55952,1.889879 -2.52011,0.630227 -6.55132,-2.520106 -9.82738,-3.779761 z"
     transform="matrix(1,0,0,-1,0.15118214,188.70574)"
     inkscape:export-xdpi="96"
     inkscape:export-ydpi="96" />
</svg>
