<?xml version="1.0" encoding="UTF-8" standalone="no"?>
<!-- Created with Inkscape (http://www.inkscape.org/) -->

<svg
   xmlns:dc="http://purl.org/dc/elements/1.1/"
   xmlns:cc="http://creativecommons.org/ns#"
   xmlns:rdf="http://www.w3.org/1999/02/22-rdf-syntax-ns#"
   xmlns:svg="http://www.w3.org/2000/svg"
   xmlns="http://www.w3.org/2000/svg"
   xmlns:sodipodi="http://sodipodi.sourceforge.net/DTD/sodipodi-0.dtd"
   xmlns:inkscape="http://www.inkscape.org/namespaces/inkscape"
   width="210mm"
   height="297mm"
   viewBox="0 0 210 297"
   version="1.1"
   id="svg28"
   inkscape:version="0.92.4 (5da689c313, 2019-01-14)"
   sodipodi:docname="ace-cd3-1.svg"
   inkscape:export-filename="C:\Users\stwood\Documents\Mapping-Webapp\mapping\www\ace-cd3-1.png"
   inkscape:export-xdpi="96"
   inkscape:export-ydpi="96">
  <defs
     id="defs22">
    <inkscape:path-effect
       effect="spiro"
       id="path-effect869"
       is_visible="true" />
    <inkscape:path-effect
       effect="spiro"
       id="path-effect865"
       is_visible="true" />
    <inkscape:path-effect
       effect="bspline"
       id="path-effect861"
       is_visible="true"
       weight="33.333333"
       steps="2"
       helper_size="0"
       apply_no_weight="true"
       apply_with_weight="true"
       only_selected="false" />
    <inkscape:path-effect
       effect="bspline"
       id="path-effect857"
       is_visible="true"
       weight="33.333333"
       steps="2"
       helper_size="0"
       apply_no_weight="true"
       apply_with_weight="true"
       only_selected="false" />
    <inkscape:path-effect
       effect="bspline"
       id="path-effect853"
       is_visible="true"
       weight="33.333333"
       steps="2"
       helper_size="0"
       apply_no_weight="true"
       apply_with_weight="true"
       only_selected="false" />
    <inkscape:path-effect
       effect="bspline"
       id="path-effect849"
       is_visible="true"
       weight="33.333333"
       steps="2"
       helper_size="0"
       apply_no_weight="true"
       apply_with_weight="true"
       only_selected="false" />
    <inkscape:path-effect
       effect="spiro"
       id="path-effect4650"
       is_visible="true" />
    <inkscape:path-effect
       effect="spiro"
       id="path-effect4654"
       is_visible="true" />
    <inkscape:path-effect
       effect="spiro"
       id="path-effect4658"
       is_visible="true" />
    <inkscape:path-effect
       effect="spiro"
       id="path-effect4662"
       is_visible="true" />
  </defs>
  <sodipodi:namedview
     id="base"
     pagecolor="#ffffff"
     bordercolor="#666666"
     borderopacity="1.0"
     inkscape:pageopacity="0.0"
     inkscape:pageshadow="2"
     inkscape:zoom="0.98994949"
     inkscape:cx="369.46274"
     inkscape:cy="717.63976"
     inkscape:document-units="mm"
     inkscape:current-layer="svg28"
     showgrid="false"
     inkscape:window-width="2560"
     inkscape:window-height="1377"
     inkscape:window-x="-8"
     inkscape:window-y="-8"
     inkscape:window-maximized="1"
     showguides="false" />
  <metadata
     id="metadata25">
    <rdf:RDF>
      <cc:Work
         rdf:about="">
        <dc:format>image/svg+xml</dc:format>
        <dc:type
           rdf:resource="http://purl.org/dc/dcmitype/StillImage" />
        <dc:title></dc:title>
      </cc:Work>
    </rdf:RDF>
  </metadata>
  <g
     inkscape:groupmode="layer"
     id="layer2"
     inkscape:label="Layer 2"
     style="display:inline" />
  <path
     style="fill:none;stroke:#000000;stroke-width:1.5;stroke-linecap:butt;stroke-linejoin:miter;stroke-opacity:1;stroke-miterlimit:4;stroke-dasharray:1.5,1.5;stroke-dashoffset:0"
     d="m 21.922619,140.51785 c 5.102787,2.5199 10.205463,5.03974 16.820066,5.10269 6.614602,0.063 14.74126,-2.33095 19.717728,-0.81918 4.976468,1.51177 6.803423,6.92964 8.460994,9.97959 1.65757,3.04995 3.193294,3.75383 5.826546,1.78487 2.633251,-1.96896 6.438293,-6.66184 8.139075,-13.87457 1.700782,-7.21273 1.322782,-16.97772 0.314847,-23.2457 -1.007934,-6.26798 -2.645871,-9.03988 -6.614356,-9.89032 -3.968484,-0.85045 -10.268269,0.22052 -14.552093,0.59852 -4.283823,0.37801 -6.551571,0.063 -7.244525,-1.07116 -0.692953,-1.13419 0.188907,-3.08688 -0.08009,-4.52614 -0.268994,-1.43925 -1.746958,-2.40314 -3.006796,-2.40326 -1.259839,-1.2e-4 -2.330725,0.94478 -3.275938,0.59815 -0.945213,-0.34662 -1.763944,-1.98408 -0.377962,-3.558952 1.385982,-1.574868 4.976985,-3.08687 5.858839,-4.976598 0.881854,-1.889728 -0.945192,-4.157786 -2.55148,-5.480661 -1.606288,-1.322874 -2.992217,-1.700855 -3.496214,-2.677576 -0.503998,-0.97672 -0.126071,-2.551416 -0.439142,-3.781673 -0.313072,-1.230256 -1.450874,-2.234199 -3.057166,-2.706676 -1.606293,-0.472478 -3.748124,-0.472478 -5.323223,-1.008014 -1.575099,-0.535537 -2.58291,-1.606337 -3.244385,-2.929346 -0.661474,-1.32301 -0.976456,-2.897921 -1.952608,-3.338904 -0.976152,-0.440984 -2.614261,0.252062 -4.363448,-0.08345 -1.749186,-0.335511 -3.668745,-1.743189 -4.64523,-2.56225 -0.976486,-0.819061 -1.039481,-1.07104 -1.10243,-1.322837"
     id="path847"
     inkscape:connector-curvature="0"
     inkscape:path-effect="#path-effect849"
     inkscape:original-d="m 21.922619,140.51785 c 5.102944,2.51958 10.205621,5.03942 15.308036,7.55953 8.12658,-2.39407 16.253241,-4.78796 24.379463,-7.18155 1.82708,5.41719 3.654036,10.83506 5.480655,16.25298 1.512213,0.62971 3.024074,1.38565 4.535715,2.07887 3.716737,-4.66161 7.559786,-9.32368 11.339285,-13.98512 -0.377687,-9.76405 -0.755687,-19.52904 -1.13393,-29.29316 -1.637588,-2.77202 -3.275528,-5.54391 -4.913688,-8.31547 -6.299158,1.07063 -12.598942,2.1416 -18.898812,3.2128 -2.267698,-0.31527 -4.535447,-0.63023 -6.803569,-0.94495 0.882295,-1.95333 1.764154,-3.90602 2.645833,-5.85863 -1.448409,-0.88206 -2.897553,-1.89014 -4.346726,-2.83482 -1.070716,0.94472 -2.141601,1.88962 -3.212798,2.83482 -0.818899,-1.63859 -1.637633,-3.27605 -2.456844,-4.913688 3.590806,-1.512072 7.18181,-3.024073 10.772319,-4.535715 -1.826458,-2.267918 -3.653504,-4.535976 -5.480653,-6.803569 -1.385631,-0.378235 -2.77156,-0.756217 -4.157739,-1.13393 0.378291,-1.575369 0.756216,-3.150066 1.133928,-4.724702 -1.007473,-0.882036 -2.141599,-1.890146 -3.212796,-2.83482 -2.141636,-2.64e-4 -4.283467,-2.64e-4 -6.425597,0 -1.007795,-1.07133 -2.015606,-2.14213 -3.023809,-3.212798 -0.314714,-1.575155 -0.629695,-3.150066 -0.944941,-4.724702 -1.637419,0.6926 -3.275528,1.385647 -4.913691,2.078868 -1.889983,-1.32344 -3.779496,-2.772089 -5.669641,-4.157739 -0.06273,-0.252253 -0.125728,-0.504232 -0.188988,-0.755951"
     transform="matrix(1,0,0,-1,0.1511906,188.70574)"
     inkscape:export-xdpi="96"
     inkscape:export-ydpi="96" />
  <path
     style="fill:none;stroke:#000000;stroke-width:1.5;stroke-linecap:butt;stroke-linejoin:miter;stroke-opacity:1;stroke-miterlimit:4;stroke-dasharray:1.5,1.5;stroke-dashoffset:0"
     d="m 61.610118,12.005952 c 2.078815,4.787573 4.157683,9.575271 6.898204,12.095187 2.740521,2.519916 6.142219,2.771893 9.480924,1.889917 3.338706,-0.881977 6.614735,-2.897994 8.34697,-5.417737 1.732235,-2.519743 1.92124,-5.543837 2.11021,-8.567367"
     id="path851"
     inkscape:connector-curvature="0"
     inkscape:path-effect="#path-effect853"
     inkscape:original-d="m 61.610118,12.005952 c 2.079135,4.787434 4.158003,9.575132 6.236607,14.363095 3.402139,0.251727 6.803837,0.503703 10.205357,0.755951 3.275825,-2.015992 6.551854,-4.032009 9.827382,-6.047618 0.189235,-3.023788 0.37824,-6.047883 0.566962,-9.071428"
     transform="matrix(1,0,0,-1,0.15119048,188.70574)"
     inkscape:export-xdpi="96"
     inkscape:export-ydpi="96" />
  <path
     style="fill:none;stroke:#000000;stroke-width:1.5;stroke-linecap:butt;stroke-linejoin:miter;stroke-opacity:1;stroke-miterlimit:4;stroke-dasharray:1.5,1.5;stroke-dashoffset:0"
     d="m 94.116071,11.627976 c 0.125989,12.535948 0.251981,25.072158 2.015944,32.379873 1.763963,7.307716 5.165675,9.386541 10.797915,8.241852 5.63223,-1.144689 13.64479,-5.596109 19.47175,-12.809028 5.82696,-7.212918 9.54387,-17.229684 13.26052,-27.245733"
     id="path855"
     inkscape:connector-curvature="0"
     inkscape:path-effect="#path-effect857"
     inkscape:original-d="m 94.116071,11.627976 c 0.126257,12.535945 0.252249,25.072155 0.377976,37.60863 3.402121,2.078648 6.803833,4.157474 10.205353,6.236607 7.8746,-4.346895 15.87527,-8.819708 23.8125,-13.229166 3.71689,-10.016236 7.4338,-20.033003 11.1503,-30.049107"
     transform="matrix(1,0,0,-1,0.15120243,188.70573)"
     inkscape:export-xdpi="96"
     inkscape:export-ydpi="96" />
  <path
     style="fill:none;stroke:#000000;stroke-width:1.5;stroke-linecap:butt;stroke-linejoin:miter;stroke-opacity:1;stroke-miterlimit:4;stroke-dasharray:1.5,1.5;stroke-dashoffset:0"
     d="m 179.16071,142.40774 c -2.14154,0.81882 -4.28341,1.63777 -7.4337,-2.0481 -3.1503,-3.68587 -7.30742,-11.87413 -9.63821,-16.12628 -2.33078,-4.25216 -2.83477,-4.56715 -2.36225,-0.75545 0.47252,3.8117 1.92122,11.74807 1.35438,16.91375 -0.56684,5.16569 -3.14961,7.55947 -6.29976,6.07888 -3.15016,-1.48059 -6.86653,-6.83468 -10.4886,-8.72461 -3.62208,-1.88994 -7.1499,-0.31502 -10.99301,-2.01608 -3.84311,-1.70106 -8.00048,-6.6773 -13.1976,-11.65395 -5.19713,-4.97664 -11.43377,-9.95336 -14.2686,-15.93815 -2.83482,-5.9848 -2.26786,-12.977321 -1.1179,-17.216162 1.14995,-4.23884 2.94504,-5.777485 2.09481,-7.131658 -0.85024,-1.354173 -4.31557,-2.551287 -7.072069,-3.987618 -2.756498,-1.436331 -4.866149,-3.162409 -5.023575,-6.154921 -0.157426,-2.992513 1.606437,-7.276183 4.220674,-9.008422 2.61424,-1.73224 6.07928,-0.91323 10.01646,-2.236188 3.93718,-1.322958 8.34714,-4.78793 12.34797,-6.2415 4.00084,-1.453569 7.71636,-0.877022 11.50466,0.62072 3.7883,1.497742 7.80283,3.982927 9.22026,7.132511 1.41743,3.149585 0.28348,6.992413 0.15745,10.67789 -0.12602,3.685477 0.75585,7.212965 0.66144,9.953279 -0.0944,2.740315 -1.16529,4.69309 -1.22833,6.583226 -0.063,1.890137 0.88176,3.716728 2.70881,5.197243 1.82706,1.480515 4.53574,2.61438 6.53662,2.503988 2.00089,-0.110392 3.3539,-1.527833 5.5899,-1.622281 2.23599,-0.09445 5.38641,1.10271 8.25266,2.236615 2.86626,1.133908 5.44921,2.204888 6.77206,4.157538 1.32285,1.95265 1.38585,4.78761 1.82688,6.52017 0.44102,1.73256 1.25991,2.36247 2.33092,2.01588 1.07101,-0.3466 2.39399,-1.66958 3.71664,-2.99223"
     id="path859"
     inkscape:connector-curvature="0"
     inkscape:path-effect="#path-effect861"
     inkscape:original-d="m 179.16071,142.40774 c -2.1416,0.81868 -4.28346,1.63763 -6.42559,2.45684 -4.15809,-8.19097 -8.31522,-16.37923 -12.47322,-24.56845 -0.50369,-0.31524 -1.00767,-0.63023 -1.5119,-0.94494 1.44938,7.93836 2.89808,15.87473 4.34672,23.8125 -2.58264,2.39365 -5.16541,4.78743 -7.74851,7.18155 -3.71689,-5.3555 -7.43326,-10.70959 -11.1503,-16.06399 -3.52747,1.57462 -7.05529,3.14954 -10.58333,4.7247 -4.15785,-4.9774 -8.31521,-9.95364 -12.47321,-14.93006 -6.23631,-4.97692 -12.47295,-9.95364 -18.70982,-14.93006 0.56723,-6.99286 1.13419,-13.985382 1.70089,-20.977677 1.76408,-1.449115 3.52804,-3.024073 5.29167,-4.535715 -3.46397,-1.196996 -6.9293,-2.394114 -10.39435,-3.590774 -2.078697,-1.638234 -4.157472,-3.402049 -6.236605,-5.102677 1.764178,-4.284054 3.528041,-8.567724 5.291666,-12.851191 3.464789,0.818624 6.929829,1.637633 10.394349,2.456847 4.40974,-3.464856 8.8197,-6.929829 13.22916,-10.394347 3.5908,0.566664 7.30781,1.133666 10.96131,1.700893 3.90579,2.456434 7.93777,4.913426 11.90625,7.370537 -1.13364,3.842422 -2.26759,7.685249 -3.40178,11.528272 0.88228,3.527803 1.76415,7.055291 2.64583,10.583333 -1.07072,1.952718 -2.1416,3.905491 -3.2128,5.858632 0.94536,1.826916 1.89015,3.653506 2.83482,5.480655 2.70925,1.133727 5.41793,2.267593 8.12649,3.401782 1.26013,-1.386106 2.6461,-2.772087 3.96875,-4.157736 3.14945,1.196427 6.29987,2.393585 9.44941,3.590774 2.58298,1.070622 5.16593,2.141602 7.74851,3.212802 0.0633,2.83441 0.12625,5.66937 0.18899,8.50446 0.81928,0.62975 1.63816,1.25966 2.45684,1.88988 1.32312,-1.32312 2.6461,-2.6461 3.96875,-3.96875"
     transform="matrix(1,0,0,-1,0.15119101,188.70574)"
     inkscape:export-xdpi="96"
     inkscape:export-ydpi="96" />
  <path
     style="fill:none;stroke:#000000;stroke-width:1.5;stroke-linecap:butt;stroke-linejoin:miter;stroke-opacity:1;stroke-miterlimit:4;stroke-dasharray:1.5,1.5;stroke-dashoffset:0"
     d="m 59.531249,42.622022 c -3.298385,1.85229 -6.114663,4.542457 -8.160385,7.724491 -2.045722,3.182034 -3.321638,6.84832 -3.745865,10.607356 -0.433646,3.842503 0.02582,7.800553 1.467344,11.388713 1.441522,3.58816 3.87781,6.792283 7.037121,9.021999 3.64746,2.574232 8.192568,3.791029 12.652317,3.587867 4.45975,-0.203162 8.818349,-1.794263 12.4831,-4.343819 4.629995,-3.221074 8.183395,-8.02111 9.702265,-13.45298 1.51887,-5.43187 0.944184,-11.460041 -1.764765,-16.407138 -2.73931,-5.002542 -7.611734,-8.771074 -13.120227,-10.249498 -5.508494,-1.478425 -11.57796,-0.669671 -16.550905,2.123009 z"
     id="path863"
     inkscape:connector-curvature="0"
     inkscape:path-effect="#path-effect865"
     inkscape:original-d="m 59.531249,42.622022 c -9.890641,-2.708563 -7.937235,12.220967 -11.90625,18.331847 -3.969014,6.11088 5.669907,13.606878 8.504465,20.410712 2.834556,6.803837 16.757208,-0.504232 25.135417,-0.755952 8.378205,-0.251719 5.291931,-19.907009 7.9375,-29.860118 2.645568,-9.953108 -19.780491,-5.417923 -29.671132,-8.126489 z"
     transform="matrix(1,0,0,-1,0.15119048,188.70574)"
     inkscape:export-xdpi="96"
     inkscape:export-ydpi="96" />
  <path
     style="fill:none;stroke:#000000;stroke-width:1.5;stroke-linecap:butt;stroke-linejoin:miter;stroke-opacity:1;stroke-miterlimit:4;stroke-dasharray:1.5,1.5;stroke-dashoffset:0"
     d="m 146.84375,40.543154 c -1.27223,-0.389203 -2.65357,-0.448014 -3.9378,-0.100495 -1.28424,0.347519 -2.46368,1.110312 -3.25331,2.181073 -0.78962,1.07076 -1.17124,2.449253 -0.97816,3.765595 0.19308,1.316342 0.97655,2.547919 2.12165,3.225254 0.6541,0.386906 1.39912,0.589763 2.14075,0.755692 0.74162,0.165928 1.49439,0.300427 2.20598,0.567225 1.53278,0.574689 2.77113,1.719523 3.9675,2.836841 1.19636,1.117319 2.4361,2.2611 3.97,2.832804 1.22689,0.457278 2.58757,0.515922 3.86788,0.241771 1.28031,-0.274151 2.48087,-0.87288 3.52043,-1.668926 2.0791,-1.592093 3.47996,-3.917186 4.51794,-6.321358 0.47101,-1.090952 0.88367,-2.242923 0.85819,-3.430937 -0.0127,-0.594007 -0.13835,-1.190134 -0.40711,-1.720012 -0.26877,-0.529879 -0.685,-0.990955 -1.20704,-1.274645 -0.59088,-0.321101 -1.29166,-0.402974 -1.95908,-0.320569 -0.66743,0.08241 -1.30666,0.320555 -1.91449,0.608303 -1.21565,0.575494 -2.36192,1.36563 -3.68595,1.602145 -0.88004,0.157204 -1.79303,0.05646 -2.6508,-0.195355 -0.85777,-0.251816 -1.66547,-0.650875 -2.44189,-1.093979 -1.55286,-0.886209 -3.02497,-1.967383 -4.73469,-2.490427 z"
     id="path867"
     inkscape:connector-curvature="0"
     inkscape:path-effect="#path-effect869"
     inkscape:original-d="m 146.84375,40.543154 c -3.27606,-1.259657 -4.03148,6.047354 -6.04762,9.071427 -2.01614,3.024077 2.89808,0.881682 4.34673,1.322917 1.44864,0.441238 5.29193,3.779499 7.9375,5.669645 2.64556,1.890144 7.93776,-5.165939 11.90625,-7.748513 3.96848,-2.582572 -0.50371,-4.283996 -0.75596,-6.425594 -0.25224,-2.141601 -5.03941,1.259655 -7.55952,1.889879 -2.52011,0.630227 -6.55132,-2.520106 -9.82738,-3.779761 z"
     transform="matrix(1,0,0,-1,0.15118214,188.70574)"
     inkscape:export-xdpi="96"
     inkscape:export-ydpi="96" />
  <path
     style="display:inline;fill:none;stroke:#000000;stroke-width:1.5;stroke-linecap:butt;stroke-linejoin:miter;stroke-miterlimit:4;stroke-dasharray:none;stroke-opacity:1"
     d="m 97.660284,198.40427 c 0.848189,-0.79566 1.490643,-1.80883 1.848629,-2.91533 0.357986,-1.10651 0.430739,-2.30399 0.209345,-3.44569 -0.242573,-1.25092 -0.824469,-2.40822 -1.445401,-3.52092 -0.620931,-1.11269 -1.291024,-2.20702 -1.735105,-3.40136 -0.820945,-2.20789 -0.824399,-4.62815 -0.705919,-6.98074 0.11848,-2.3526 0.34738,-4.72781 -0.04244,-7.05091 -0.191499,-1.14123 -0.532371,-2.27557 -0.46392,-3.43073 0.03422,-0.57758 0.175069,-1.15618 0.47032,-1.65377 0.295252,-0.4976 0.75337,-0.90932 1.303221,-1.08942 0.47074,-0.15418 0.989137,-0.13333 1.4627,0.0119 0.473563,0.14528 0.904508,0.41011 1.282718,0.72999 0.756414,0.63977 1.301594,1.48707 1.931804,2.25148 1.44303,1.75031 3.34942,3.07658 5.38779,4.07205 2.03837,0.99547 4.21489,1.67537 6.39879,2.28896 2.02781,0.56973 4.07937,1.0873 6.17393,1.30962 1.48142,0.15724 3.00625,0.17197 4.39868,0.70155 0.69621,0.2648 1.35171,0.66152 1.85119,1.2141 0.49948,0.55259 0.83451,1.26876 0.8595,2.01321 0.0201,0.60002 -0.15781,1.19178 -0.40756,1.73773 -0.24975,0.54594 -0.5711,1.05555 -0.85975,1.58196 -0.28865,0.52642 -0.54758,1.07826 -0.65742,1.66849 -0.10984,0.59023 -0.0593,1.22711 0.24093,1.74702 0.17861,0.30932 0.43589,0.56404 0.68218,0.82273 0.24629,0.25868 0.48887,0.53186 0.62744,0.86106 0.17097,0.40618 0.1681,0.87384 0.0373,1.29469 -0.13077,0.42085 -0.38295,0.79709 -0.68847,1.1147 -0.61102,0.6352 -1.41803,1.03634 -2.1552,1.51947 -2.17549,1.42578 -3.804,3.66498 -4.49013,6.17393"
     id="path4648"
     inkscape:connector-curvature="0"
     inkscape:path-effect="#path-effect4650"
     inkscape:original-d="m 97.660284,198.40427 c 0.686255,-2.05824 1.372248,-4.24094 2.057974,-6.36102 0.685732,-2.12007 -2.120072,-4.61512 -3.180506,-6.92228 -1.060434,-2.30716 -0.498639,-9.35469 -0.748355,-14.03165 -0.249716,-4.67695 0.873344,-4.11621 1.309621,-6.17392 0.436277,-2.05771 3.118412,1.99535 4.677222,2.99342 1.5588,0.99807 7.85798,4.24041 11.78658,6.36101 3.9286,2.1206 4.11622,0.87282 6.17393,1.30962 2.05771,0.43681 4.73984,2.61898 7.10937,3.92886 2.36952,1.30989 -1.12227,4.48987 -1.6838,6.7352 -0.56153,2.24532 0.87334,1.12226 1.30962,1.68379 0.43627,0.56153 -1.87062,2.61898 -2.80633,3.92886 -0.93571,1.30989 -2.99316,4.11569 -4.49013,6.17393"
     transform="translate(-4.451344,-20.797349)" />
  <path
     style="display:inline;fill:none;stroke:#000000;stroke-width:1.5;stroke-linecap:butt;stroke-linejoin:miter;stroke-miterlimit:4;stroke-dasharray:none;stroke-opacity:1"
     d="m 183.90816,71.932331 c -0.1401,0.620024 -0.45525,1.199501 -0.89958,1.654062 -0.44434,0.454561 -1.01649,0.782822 -1.63317,0.936991 -0.61667,0.154168 -1.27599,0.133775 -1.88196,-0.05821 -0.60597,-0.191986 -1.15674,-0.554981 -1.57213,-1.036134 -0.1748,-0.202472 -0.32561,-0.424665 -0.49986,-0.627611 -0.17425,-0.202945 -0.37683,-0.389508 -0.62267,-0.494921 -0.31179,-0.133693 -0.67337,-0.124846 -0.99536,-0.01802 -0.32199,0.10682 -0.6073,0.305719 -0.85388,0.538715 -0.49316,0.465992 -0.84166,1.067568 -1.33127,1.537287 -0.58111,0.557495 -1.34567,0.906925 -2.13902,1.045027 -0.79336,0.138103 -1.61442,0.07164 -2.39422,-0.129372 -1.55959,-0.40202 -2.92928,-1.317911 -4.25993,-2.225276 -1.07439,-0.732621 -2.15199,-1.473609 -3.33233,-2.019352 -1.18035,-0.545742 -2.48084,-0.8916 -3.77703,-0.786978 -0.75641,0.06105 -1.49145,0.272772 -2.23774,0.410407 -0.74629,0.137635 -1.53081,0.198734 -2.25239,-0.03623 -0.61044,-0.198775 -1.13384,-0.595146 -1.70502,-0.888245 -0.28559,-0.146549 -0.587,-0.268459 -0.90349,-0.322061 -0.31649,-0.0536 -0.65001,-0.03601 -0.94618,0.08778 -0.26433,0.11048 -0.49057,0.302217 -0.66317,0.530874 -0.1726,0.228657 -0.29339,0.493404 -0.37737,0.767307 -0.16794,0.547806 -0.1909,1.127623 -0.26908,1.695238 -0.14764,1.071973 -0.4949,2.113153 -0.57974,3.191916 -0.0424,0.539381 -0.0176,1.088728 0.12913,1.609496 0.14674,0.520767 0.42055,1.012897 0.82479,1.372513 0.13293,0.118254 0.27864,0.221381 0.41293,0.338086 0.13429,0.116704 0.25887,0.24967 0.33543,0.410269 0.0618,0.129532 0.0903,0.274161 0.0869,0.41762 -0.003,0.14346 -0.0382,0.285643 -0.0974,0.416373 -0.11835,0.26146 -0.33171,0.472796 -0.57768,0.620658 -0.49196,0.295723 -1.0877,0.342721 -1.65697,0.416236 -2.551,0.329436 -4.99605,1.340035 -7.10937,2.80633 -1.37875,0.956628 -2.62822,2.112582 -3.61401,3.470641 -0.98579,1.358059 -1.70348,2.922209 -1.99865,4.574171 -0.19069,1.067226 -0.20485,2.157064 -0.30589,3.236474 -0.10104,1.079409 -0.29703,2.17305 -0.81664,3.124541 -0.57856,1.059424 -1.53065,1.880969 -2.58893,2.461609 -1.05828,0.58064 -2.22437,0.93654 -3.39535,1.22964 -1.17099,0.29309 -2.35779,0.52778 -3.51053,0.88597 -1.15274,0.35818 -2.28095,0.84726 -3.22722,1.59671 -1.17881,0.93362 -2.01567,2.21886 -2.96739,3.38311 -0.47586,0.58213 -0.98713,1.14054 -1.57893,1.60431 -0.5918,0.46377 -1.26882,0.83182 -2.00178,0.99941 -0.71026,0.1624 -1.44785,0.13308 -2.17628,0.1481 -0.72843,0.015 -1.47815,0.0813 -2.12676,0.41317 -0.48929,0.25037 -0.89713,0.6423 -1.21691,1.08932 -0.31978,0.44703 -0.55551,0.94895 -0.75328,1.46176 -0.39553,1.02563 -0.65056,2.11552 -1.21032,3.06158 -0.70262,1.18752 -1.82896,2.05562 -2.71064,3.11699 -0.44084,0.53069 -0.82529,1.11977 -1.03813,1.77602 -0.21285,0.65625 -0.24372,1.38654 0.007,2.02927 0.16651,0.42685 0.44974,0.80052 0.77613,1.12207 0.32639,0.32155 0.69659,0.59473 1.06709,0.86427 0.3705,0.26955 0.74391,0.53763 1.07855,0.85059 0.33464,0.31296 0.63153,0.67431 0.82,1.09193 0.25881,0.57349 0.30021,1.22729 0.21267,1.85036 -0.0876,0.62307 -0.29791,1.22189 -0.52661,1.80804 -0.22871,0.58615 -0.47757,1.16626 -0.64743,1.77208 -0.16986,0.60583 -0.25917,1.24447 -0.16116,1.86598 0.11456,0.72646 0.4808,1.39542 0.94833,1.96312 0.46753,0.56771 1.03513,1.04372 1.60886,1.50383 0.57373,0.46012 1.15923,0.90977 1.67339,1.43561 0.51416,0.52585 0.95886,1.13613 1.19499,1.83263 0.26233,0.77376 0.25477,1.61759 0.11725,2.42296 -0.13752,0.80536 -0.40007,1.58305 -0.64186,2.36347 -0.24178,0.78043 -0.46494,1.57424 -0.51968,2.38942 -0.0547,0.81519 0.0693,1.66116 0.48302,2.36567 0.47526,0.80925 1.30011,1.3715 2.18663,1.67944 0.88653,0.30793 1.83679,0.38285 2.77522,0.39298 0.93843,0.0101 1.87843,-0.0419 2.81466,0.023 0.93624,0.0649 1.88119,0.25319 2.70046,0.71095 0.661,0.36933 1.21537,0.89905 1.76634,1.41843 0.55097,0.51939 1.11544,1.04074 1.78834,1.38791 0.56096,0.28941 1.19071,0.44991 1.82189,0.44288 0.63118,-0.007 1.26245,-0.18392 1.79426,-0.52394 0.53181,-0.34001 0.96059,-0.84442 1.19117,-1.43201 0.23058,-0.5876 0.25813,-1.25622 0.057,-1.85453 -0.23093,-0.68691 -0.7364,-1.24265 -1.07989,-1.88076 -0.17175,-0.31905 -0.30446,-0.66551 -0.33131,-1.02686 -0.0268,-0.36135 0.0603,-0.73988 0.28867,-1.02124 0.12405,-0.15287 0.28632,-0.27335 0.46545,-0.35502 0.17913,-0.0817 0.37483,-0.125 0.57147,-0.13442 0.39329,-0.0188 0.78395,0.0969 1.13545,0.27434 0.70299,0.35488 1.26051,0.94578 1.94358,1.33763 0.67643,0.38804 1.46454,0.56894 2.24416,0.55054 0.77962,-0.0184 1.54987,-0.23245 2.24447,-0.58695 1.38921,-0.709 2.4472,-1.95546 3.182,-3.33119 0.73321,-1.37274 1.17981,-2.89402 2.01737,-4.2057 0.41878,-0.65584 0.93858,-1.25755 1.58344,-1.69304 0.64487,-0.43549 1.42225,-0.69684 2.19894,-0.64936 0.47426,0.029 0.93331,0.1697 1.39559,0.27952 0.46227,0.10983 0.94512,0.18933 1.41074,0.0947 0.47048,-0.0957 0.89642,-0.36879 1.21025,-0.73213 0.31384,-0.36334 0.51918,-0.81302 0.62775,-1.28069 0.21712,-0.93535 0.0554,-1.91443 -0.1542,-2.85149 -0.92556,-4.13713 -2.76499,-8.02615 -3.69488,-12.16231 -0.46494,-2.06808 -0.69892,-4.20637 -0.46044,-6.31261 0.23848,-2.10624 0.96883,-4.18458 2.28443,-5.8466 0.79517,-1.00455 1.78309,-1.83674 2.67059,-2.76074 0.8875,-0.924 1.69662,-1.98299 2.00663,-3.2261 0.25578,-1.02564 0.15437,-2.10077 0.15824,-3.15782 0.002,-0.52852 0.031,-1.0597 0.14417,-1.57597 0.11316,-0.51627 0.31336,-1.01925 0.63303,-1.440138 0.47018,-0.619055 1.17438,-1.027873 1.91241,-1.272025 0.73803,-0.244151 1.51614,-0.337194 2.28826,-0.427373 0.77212,-0.09018 1.5503,-0.180079 2.29023,-0.418398 0.73993,-0.238319 1.4482,-0.638243 1.92809,-1.249799 0.45434,-0.578995 0.67369,-1.301802 0.98071,-1.970683 0.1535,-0.33444 0.33215,-0.660473 0.56913,-0.941998 0.23698,-0.281524 0.53585,-0.517974 0.88231,-0.642004 0.42006,-0.150381 0.89097,-0.126753 1.31327,0.01723 0.4223,0.143978 0.79887,0.402385 1.12403,0.707888 0.65034,0.611005 1.10011,1.401846 1.67866,2.081215 0.90119,1.058223 2.0931,1.822406 3.28765,2.533051 1.19455,0.710645 2.42249,1.392504 3.44754,2.331248 1.3211,1.20986 2.23994,2.78515 3.14993,4.3282 0.90998,1.54306 1.85476,3.10765 3.21108,4.27789 0.6178,0.53304 1.31344,0.97572 2.05798,1.30961"
     id="path4652"
     inkscape:connector-curvature="0"
     inkscape:path-effect="#path-effect4654"
     inkscape:original-d="m 183.90816,71.932331 c -1.99535,0.498639 -3.99096,0.99754 -5.98684,1.496708 -1.99587,0.499168 -0.74809,-0.74862 -1.12253,-1.122532 -0.37444,-0.373912 -2.12007,1.371719 -3.18051,2.057977 -1.06043,0.686255 -5.86184,-0.873347 -8.79317,-1.309621 -2.93131,-0.436277 -4.73931,-1.871152 -7.10936,-2.80633 -2.37006,-0.93518 -2.99316,0.249187 -4.49013,0.374176 -1.49698,0.12499 -2.36953,-0.74862 -3.55469,-1.122531 -1.18516,-0.373912 -0.87281,1.995347 -1.30962,2.993419 -0.4368,0.998069 0.24972,4.115686 0.37418,6.173925 0.12446,2.058241 0.49917,0.498639 0.74836,0.748355 0.24918,0.249717 -1.49645,1.246992 -2.24507,1.870887 -0.74862,0.623893 -4.73931,1.87062 -7.10937,2.80633 -2.37005,0.935707 -3.74151,5.362943 -5.61266,8.044812 -1.87115,2.68187 -0.74809,4.240411 -1.12253,6.361015 -0.37444,2.120599 -8.48109,4.115689 -12.72203,6.173929 -4.24094,2.05824 -4.36514,3.99096 -6.5481,5.98683 -2.18297,1.99588 -2.86843,0.37392 -4.30304,0.56127 -1.43461,0.18735 -2.12008,3.74151 -3.18051,5.61266 -1.06043,1.87115 -2.49425,4.61459 -3.74177,6.92228 -1.24753,2.30769 2.49478,2.61898 3.74177,3.92886 1.24699,1.30989 -0.74809,4.86404 -1.12253,7.29646 -0.37444,2.43242 3.61731,4.48987 5.42557,6.73519 1.80826,2.24533 -0.37391,6.36075 -0.56127,9.54152 -0.18735,3.18078 6.98491,1.87063 10.47697,2.80633 3.49206,0.93571 2.37005,1.87063 3.55468,2.80634 1.18463,0.9357 3.24314,-2.24533 4.86431,-3.3676 1.62117,-1.12227 -0.74809,-2.61951 -1.12253,-3.92886 -0.37445,-1.30936 2.74423,0.74809 4.11595,1.12253 1.37172,0.37444 5.11402,-2.24533 7.67063,-3.3676 2.55662,-1.12226 3.86677,-4.36566 5.79975,-6.5481 1.93299,-2.18244 1.87115,0.24919 2.80633,0.37418 0.93518,0.12499 1.1228,-3.24314 1.6838,-4.86431 0.561,-1.62117 -1.24699,-16.21461 -1.87089,-24.32152 -0.62389,-8.10692 3.11841,-3.9915 4.67722,-5.98684 1.55881,-1.99535 0.62389,-4.11622 0.93544,-6.173928 0.31155,-2.057712 5.61293,-2.245328 8.41899,-3.367595 2.80607,-1.12227 1.6217,-2.370056 2.43215,-3.554685 0.81046,-1.184633 2.74424,1.87062 4.11596,2.806329 1.37171,0.935707 4.49039,3.242606 6.73519,4.864299 2.2448,1.6217 4.24094,5.73713 6.36101,8.60609 2.12008,2.86895 1.37225,0.87281 2.05798,1.30961"
     transform="translate(-4.451344,-20.797349)" />
  <path
     style="display:inline;fill:none;stroke:#000000;stroke-width:1.5;stroke-linecap:butt;stroke-linejoin:miter;stroke-miterlimit:4;stroke-dasharray:none;stroke-opacity:1"
     d="m 59.868373,147.14197 c 0.249661,-0.006 0.500492,-0.0305 0.748356,0 0.438254,0.054 0.84249,0.27872 1.171975,0.57269 0.329485,0.29397 0.591233,0.65541 0.834067,1.02421 0.242833,0.36879 0.470183,0.74896 0.743774,1.09555 0.273591,0.3466 0.598409,0.66199 0.991956,0.86224 0.578836,0.29453 1.267822,0.31703 1.901611,0.17521 0.63379,-0.14182 1.222274,-0.43685 1.788021,-0.75581 0.565747,-0.31895 1.118295,-0.66556 1.714195,-0.92383 0.5959,-0.25827 1.245977,-0.42678 1.892632,-0.36646 0.797988,0.0744 1.52147,0.48673 2.19457,0.92177 0.6731,0.43505 1.339697,0.90968 2.108468,1.13621 0.812235,0.23934 1.697327,0.18126 2.498519,-0.0928 0.801192,-0.27404 1.521492,-0.75615 2.135506,-1.33924 1.228028,-1.16618 2.023384,-2.70229 2.849521,-4.18064 0.721969,-1.29195 1.485808,-2.56561 2.067557,-3.92647 0.58175,-1.36086 0.979565,-2.82641 0.925862,-4.30543 -0.06013,-1.65594 -0.683084,-3.24804 -1.506296,-4.68612 -0.823213,-1.43808 -1.847218,-2.74905 -2.796741,-4.10705 -0.709208,-1.0143 -1.381434,-2.06103 -2.21244,-2.9782 -0.831006,-0.91718 -1.842899,-1.70994 -3.026043,-2.07319 -1.355615,-0.4162 -2.817752,-0.23957 -4.210896,0.0251 -1.393144,0.2647 -2.792252,0.61552 -4.208095,0.53613 -1.757492,-0.0985 -3.414332,-0.85321 -5.158255,-1.09242 -0.871961,-0.11961 -1.777503,-0.10593 -2.610199,0.1791 -0.832696,0.28502 -1.587364,0.86439 -1.960156,1.66167 -0.347639,0.74348 -0.341188,1.60242 -0.245564,2.41757 0.09562,0.81515 0.273714,1.62648 0.245564,2.44674 -0.04989,1.45371 -0.74218,2.80806 -1.546805,4.01981 -0.804625,1.21174 -1.74099,2.34516 -2.382057,3.65083 -0.49809,1.01447 -0.809154,2.12475 -0.870094,3.25326 -0.06094,1.12851 0.131437,2.27455 0.594538,3.30546 0.463102,1.03091 1.199959,1.94305 2.133503,2.58003 0.933545,0.63697 2.063642,0.99201 3.193446,0.96403 z"
     id="path4656"
     inkscape:connector-curvature="0"
     inkscape:path-effect="#path-effect4658"
     inkscape:original-d="m 59.868373,147.14197 c 1.683534,3.36787 0.499169,-2.6e-4 0.748356,0 0.249187,2.7e-4 2.49478,2.36953 3.741772,3.55469 1.246994,1.18516 4.864571,-1.24752 7.296459,-1.87089 2.431889,-0.62336 2.868957,1.37172 4.303038,2.05798 1.434084,0.68625 4.989295,-3.74204 7.483546,-5.61266 2.494251,-1.87062 1.995879,-5.4882 2.993419,-8.2319 0.997543,-2.74371 -2.868427,-5.86238 -4.303037,-8.79317 -1.434611,-2.93079 -3.492059,-3.36786 -5.238483,-5.05139 -1.746427,-1.68354 -5.612397,0.37391 -8.418991,0.56126 -2.806595,0.18735 -6.485475,0.49864 -9.72861,0.74835 -3.243136,0.24972 2.64e-4,3.24261 0,4.86431 -2.65e-4,1.6217 -2.618979,5.11349 -3.928862,7.67064 -1.309886,2.55714 3.36786,6.73492 5.051393,10.10278 z"
     transform="translate(-4.451344,-20.797349)" />
  <path
     style="display:inline;fill:none;stroke:#000000;stroke-width:1.5;stroke-linecap:butt;stroke-linejoin:miter;stroke-miterlimit:4;stroke-dasharray:none;stroke-opacity:1"
     d="m 26.192413,131.42653 c 3.299284,1.45602 6.873654,2.28579 10.476966,2.43215 2.289732,0.093 4.614009,-0.0928 6.787849,-0.81807 2.17384,-0.72521 4.195865,-2.01778 5.560004,-3.85915 1.279465,-1.72707 1.926228,-3.84459 2.30353,-5.96059 0.377302,-2.116 0.507687,-4.26985 0.876976,-6.38726 0.413944,-2.37345 1.127028,-4.69554 1.378302,-7.09168 0.125636,-1.19807 0.134044,-2.41455 -0.06954,-3.60186 -0.203586,-1.18731 -0.624346,-2.34678 -1.308761,-3.33811 -0.830886,-1.20348 -2.009921,-2.11284 -3.074265,-3.115795 -0.532172,-0.501477 -1.041096,-1.03266 -1.460085,-1.631938 -0.41899,-0.599278 -0.747138,-1.270573 -0.89122,-1.987459 -0.227831,-1.133583 0.01991,-2.329157 0.539531,-3.362071 0.519623,-1.032913 1.29728,-1.916671 2.150413,-2.697106 1.706268,-1.560872 3.758299,-2.771563 5.167779,-4.604876 0.779211,-1.013521 1.338143,-2.19849 1.60298,-3.449191 0.264836,-1.250702 0.233312,-2.565748 -0.112485,-3.796527 -0.345798,-1.23078 -1.007333,-2.374277 -1.917503,-3.272043 -0.91017,-0.897766 -2.06838,-1.54564 -3.314767,-1.830091 -1.727011,-0.394139 -3.553035,-0.08682 -5.210311,0.538756 -1.657276,0.62558 -3.178415,1.556736 -4.705386,2.454663 -1.614424,0.949354 -3.26116,1.877342 -4.654101,3.129282 -1.392941,1.25194 -2.532165,2.879316 -2.829448,4.72844 -0.164104,1.020741 -0.06627,2.071377 0.178941,3.075724 0.245212,1.004347 0.634957,1.967525 1.058333,2.910709 0.846751,1.886367 1.846741,3.751997 2.130324,5.800154 0.202011,1.45901 0.02321,2.969078 -0.513946,4.340569 -0.537157,1.37149 -1.431467,2.60132 -2.570618,3.53505 -1.139151,0.93373 -2.52059,1.56926 -3.970831,1.82679 -1.450241,0.25752 -2.966031,0.13646 -4.357014,-0.34798"
     id="path4660"
     inkscape:connector-curvature="0"
     inkscape:path-effect="#path-effect4662"
     inkscape:original-d="m 26.192413,131.42653 c 3.492588,0.81045 6.984908,1.62117 10.476966,2.43215 3.492058,0.81098 8.232166,-3.11841 12.347853,-4.67722 4.115686,-1.5588 2.120601,-8.23216 3.180506,-12.34785 1.059904,-4.11568 2.64e-4,-9.3547 0,-14.03165 -2.65e-4,-4.676951 -3.616783,-4.490393 -5.42557,-6.735192 -1.80879,-2.2448 5.238747,-7.109635 7.857723,-10.664053 2.618978,-3.55442 -2.494251,-8.232166 -3.741775,-12.347852 -1.247521,-4.115687 -6.610202,1.995347 -9.915697,2.993419 -3.305497,0.998069 -4.988769,5.238218 -7.483549,7.857722 -2.49478,2.619508 2.245331,7.857461 3.367598,11.786587 1.122268,3.929126 -7.608009,6.236019 -11.412409,9.354429"
     transform="translate(-4.451344,-20.797349)" />
</svg>
